<svg width="129" height="129" viewBox="0 0 129 129" fill="none" xmlns="http://www.w3.org/2000/svg">
<g filter="url(#filter0_d_1_13)">
<rect x="35" y="27" width="59" height="59" rx="15" fill="white"/>
</g>
<path d="M50.8 60.64H53.86V63H48V50.06H50.8V60.64ZM62.8075 52.5V60.56C62.8075 62.32 61.9808 63.2 60.3275 63.2H57.6675C56.0142 63.2 55.1875 62.32 55.1875 60.56V52.5C55.1875 50.74 56.0142 49.86 57.6675 49.86H60.3275C61.9808 49.86 62.8075 50.74 62.8075 52.5ZM60.0075 60.88V52.16C60.0075 52.0533 59.9675 51.96 59.8875 51.88C59.8208 51.8 59.7342 51.76 59.6275 51.76H58.3675C58.2608 51.76 58.1675 51.8 58.0875 51.88C58.0208 51.96 57.9875 52.0533 57.9875 52.16V60.88C57.9875 60.9867 58.0208 61.08 58.0875 61.16C58.1675 61.24 58.2608 61.28 58.3675 61.28H59.6275C59.7342 61.28 59.8208 61.24 59.8875 61.16C59.9675 61.08 60.0075 60.9867 60.0075 60.88ZM68.655 57.86V55.8H72.355V60.56C72.355 62.32 71.5283 63.2 69.875 63.2H67.355C65.7017 63.2 64.875 62.32 64.875 60.56V52.5C64.875 50.74 65.7017 49.86 67.355 49.86H69.875C71.5283 49.86 72.355 50.74 72.355 52.5V53.72H69.695V52.16C69.695 52.0533 69.655 51.96 69.575 51.88C69.5083 51.8 69.4217 51.76 69.315 51.76H68.055C67.9483 51.76 67.855 51.8 67.775 51.88C67.7083 51.96 67.675 52.0533 67.675 52.16V60.88C67.675 60.9867 67.7083 61.08 67.775 61.16C67.855 61.24 67.9483 61.28 68.055 61.28H69.315C69.4217 61.28 69.5083 61.24 69.575 61.16C69.655 61.08 69.695 60.9867 69.695 60.88V57.86H68.655ZM81.5184 52.5V60.56C81.5184 62.32 80.6918 63.2 79.0384 63.2H76.3784C74.7251 63.2 73.8984 62.32 73.8984 60.56V52.5C73.8984 50.74 74.7251 49.86 76.3784 49.86H79.0384C80.6918 49.86 81.5184 50.74 81.5184 52.5ZM78.7184 60.88V52.16C78.7184 52.0533 78.6784 51.96 78.5984 51.88C78.5318 51.8 78.4451 51.76 78.3384 51.76H77.0784C76.9718 51.76 76.8784 51.8 76.7984 51.88C76.7318 51.96 76.6984 52.0533 76.6984 52.16V60.88C76.6984 60.9867 76.7318 61.08 76.7984 61.16C76.8784 61.24 76.9718 61.28 77.0784 61.28H78.3384C78.4451 61.28 78.5318 61.24 78.5984 61.16C78.6784 61.08 78.7184 60.9867 78.7184 60.88Z" fill="black"/>
<defs>
<filter id="filter0_d_1_13" x="0" y="0" width="129" height="129" filterUnits="userSpaceOnUse" color-interpolation-filters="sRGB">
<feFlood flood-opacity="0" result="BackgroundImageFix"/>
<feColorMatrix in="SourceAlpha" type="matrix" values="0 0 0 0 0 0 0 0 0 0 0 0 0 0 0 0 0 0 127 0" result="hardAlpha"/>
<feOffset dy="8"/>
<feGaussianBlur stdDeviation="17.5"/>
<feColorMatrix type="matrix" values="0 0 0 0 0 0 0 0 0 0 0 0 0 0 0 0 0 0 0.13 0"/>
<feBlend mode="normal" in2="BackgroundImageFix" result="effect1_dropShadow_1_13"/>
<feBlend mode="normal" in="SourceGraphic" in2="effect1_dropShadow_1_13" result="shape"/>
</filter>
</defs>
</svg>
